<svg t="1626165359555" class="icon" viewBox="0 0 1157 1024" version="1.1" xmlns="http://www.w3.org/2000/svg" p-id="5197" width="128" height="128"><path d="M1076.758261 668.026435h-141.579131V534.26087H599.707826v-155.291827h234.852174c38.956522 0 77.913043-26.490435 77.913043-62.018782V73.149217A82.587826 82.587826 0 0 0 834.56 0H323.005217a83.789913 83.789913 0 0 0-79.471304 73.149217v243.801044c0 35.283478 40.514783 62.018783 79.471304 62.018782H556.521739V534.26087H223.721739v133.765565H80.806957c-39.401739 0-80.806957 28.204522-80.806957 63.398956v219.425392C0 985.800348 41.627826 1024 80.806957 1024h349.940869c39.17913 0 80.806957-37.954783 80.806957-73.149217v-219.425392c0-34.994087-41.850435-63.398957-80.806957-63.398956h-163.84v-89.84487h622.413913v89.84487h-162.504348c-39.17913 0-80.806957 28.204522-80.806956 63.398956v219.425392c0 34.949565 41.627826 73.149217 80.806956 73.149217h349.94087c39.17913 0 80.806957-37.954783 80.806956-73.149217v-219.425392c0-34.994087-41.627826-63.398957-80.806956-63.398956z m-608.612174 43.920695v268.109913c0-0.24487-423.624348 0-423.624348 0s-0.222609-268.109913 0-268.109913 423.624348 0.400696 423.624348 0z m-178.532174-378.301217V42.540522h578.337391v291.105391H289.613913z m824.765217 646.41113s-423.846957-0.333913-423.846956 0V711.94713s423.846957 0.333913 423.846956 0v268.109913z" p-id="5198"></path></svg>