<svg t="1626166321418" class="icon" viewBox="0 0 1077 1024" version="1.1" xmlns="http://www.w3.org/2000/svg" p-id="7393" width="128" height="128"><path d="M307.249314 211.294316l-80.842106-92.106105c-10.778947-5.389474-10.778947-21.557895 0-32.525474a17.731368 17.731368 0 0 1 26.947369 0l86.231579 97.549474a34.681263 34.681263 0 0 1 0 32.471578 19.671579 19.671579 0 0 1-16.168421 5.389474c-5.389474 0-10.778947-5.389474-16.168421-10.778947z m447.326315 10.778947a18.863158 18.863158 0 0 1-10.778947-5.389474 34.735158 34.735158 0 0 1 0-32.498526l80.842105-92.106105a15.225263 15.225263 0 0 1 26.947369 0 34.681263 34.681263 0 0 1 0 32.471579l-80.842105 92.133052a19.725474 19.725474 0 0 1-16.168422 5.389474z m-215.578947-32.498526a24.737684 24.737684 0 0 1-21.557895-26.947369V21.557895a21.557895 21.557895 0 1 1 43.11579 0v146.270316a23.228632 23.228632 0 0 1-21.557895 21.557894z m538.947369 438.864842v314.287158A78.551579 78.551579 0 0 1 1002.491419 1024H75.501945A78.578526 78.578526 0 0 1 0.049314 942.726737V628.493474L167.122998 352.202105a84.021895 84.021895 0 0 1 70.063158-43.358316h603.621052a83.994947 83.994947 0 0 1 70.063158 43.358316L1077.944051 628.493474z m-32.336843 281.761684l-10.778947-238.430316H706.070366c-5.389474 0-10.778947 10.778947-10.778947 16.168421v10.778948a155.701895 155.701895 0 0 1-161.684211 140.880842 159.797895 159.797895 0 0 1-161.68421-140.880842v-10.778948c0-10.778947-5.389474-16.168421-10.778947-16.168421H32.386156v238.376421c0 59.607579 10.778947 81.273263 64.673684 81.273264H970.154577c59.284211 0 75.452632-21.557895 75.452631-81.273264z m-851.536842-530.863158l-150.905263 249.236211h350.31579c5.389474 0 10.778947 10.778947 10.778947 16.168421v10.778947c0 81.273263 59.284211 146.297263 129.347368 146.297263s129.347368-65.024 129.347369-146.297263v-10.778947c0-10.778947 5.389474-16.168421 10.778947-16.168421h350.31579l-150.905263-249.263158a45.379368 45.379368 0 0 0-37.726316-21.557895H231.796682a40.609684 40.609684 0 0 0-37.726316 21.557895z" fill="#CDD2DB" p-id="7394"></path><path d="M193.477524 363.546947a40.205474 40.205474 0 0 1 37.726316-23.471158h604.914526a45.056 45.056 0 0 1 37.726316 23.444211l151.201684 269.931789H674.137735c-5.389474 0-10.778947 5.874526-10.778948 17.596632v11.749053c0 88.037053-59.284211 158.450526-129.643789 158.450526s-129.616842-70.413474-129.616842-158.450526v-11.722106c0-5.874526-5.389474-17.596632-10.778948-17.596631H42.194998l151.228631-269.93179z" fill="#CDD2DB" opacity=".3" p-id="7395"></path></svg>