
<?xml version="1.0" standalone="no"?><!DOCTYPE svg PUBLIC "-//W3C//DTD SVG 1.1//EN" "http://www.w3.org/Graphics/SVG/1.1/DTD/svg11.dtd"><svg t="1623046973973" class="icon" viewBox="0 0 1024 1024" version="1.1" xmlns="http://www.w3.org/2000/svg" p-id="1255" xmlns:xlink="http://www.w3.org/1999/xlink" width="64" height="64"><defs><style type="text/css"></style></defs><path d="M776.5 909.4h-527c-68.9 0-125-56.1-125-125V299.3c0-68.9 56.1-125 125-125h527.1c68.9 0 125 56.1 125 125v485.1c0 68.9-56.1 125-125.1 125z m-527-685.2c-41.4 0-75 33.7-75 75v485.1c0 41.4 33.7 75 75 75h527.1c41.4 0 75-33.7 75-75v-485c0-41.4-33.7-75-75-75H249.5z"  p-id="1256"></path><path d="M519.7 568.5c-9.4 0-18.4-5.3-22.6-14.4-10-21.3-15.1-44-15.1-67.7 0-87.7 71.3-159 159-159 13.8 0 27.5 1.8 40.7 5.3 13.3 3.5 21.3 17.2 17.8 30.6-3.5 13.3-17.2 21.3-30.6 17.8-9.1-2.4-18.5-3.6-27.9-3.6-60.1 0-109 48.9-109 109 0 16.2 3.5 31.8 10.3 46.4 5.9 12.5 0.5 27.4-12 33.3-3.4 1.6-7 2.3-10.6 2.3zM641 645.5c-18.8 0-37.2-3.3-54.7-9.7-0.6-0.2-1.3-0.5-2-0.7-12.9-4.9-19.4-19.4-14.4-32.3 4.9-12.9 19.4-19.4 32.3-14.4 0.4 0.2 0.9 0.3 1.3 0.5 12 4.4 24.6 6.6 37.5 6.6 60.1 0 109-48.9 109-109 0-13.4-2.4-26.4-7.1-38.8-4.9-12.9 1.6-27.3 14.5-32.3s27.3 1.6 32.3 14.5C796.5 448 800 467 800 486.5c0 87.7-71.3 159-159 159z"  p-id="1257"></path><path d="M674.7 524.4c-21.4 0-42.7-8-58.8-24.1-32.7-32.7-32.1-86.6 1.4-120.1l36.7-36.7c9.8-9.8 25.6-9.8 35.4 0 9.8 9.8 9.8 25.6 0 35.4l-36.7 36.7c-14 14-14.6 36.1-1.4 49.4 13.2 13.2 35.4 12.6 49.4-1.4l45.7-45.7c9.8-9.8 25.6-9.8 35.4 0 9.8 9.8 9.8 25.6 0 35.4L736 498.8c-17 17-39.2 25.6-61.3 25.6zM413 816c-53.5 0-97-43.5-97-97 0-25.9 10.1-50.3 28.4-68.6 0.8-0.8 1.6-1.5 2.4-2.1L505.5 526c10.9-8.4 26.6-6.4 35.1 4.5 8.4 10.9 6.4 26.6-4.5 35.1L378.8 686.8c-8.2 8.8-12.8 20.1-12.8 32.2 0 25.9 21.1 47 47 47 10.3 0 19.9-3.2 28-9.3l127.2-156.8c8.7-10.7 24.4-12.4 35.2-3.7 10.7 8.7 12.4 24.4 3.7 35.2l-129 159c-1.1 1.3-2.2 2.5-3.5 3.6-17.3 14.2-39.2 22-61.6 22zM412.3 377.5H249.7c-13.8 0-25-11.2-25-25s11.2-25 25-25h162.7c13.8 0 25 11.2 25 25s-11.3 25-25.1 25zM337 507.5h-87.3c-13.8 0-25-11.2-25-25s11.2-25 25-25H337c13.8 0 25 11.2 25 25s-11.2 25-25 25zM354.1 272.6c-13.8 0-25-11.2-25-25V128c0-13.8 11.2-25 25-25s25 11.2 25 25v119.6c0 13.8-11.2 25-25 25zM666.1 272.6c-13.8 0-25-11.2-25-25V128c0-13.8 11.2-25 25-25s25 11.2 25 25v119.6c0 13.8-11.2 25-25 25z"  p-id="1258"></path></svg>